<?xml version="1.0" encoding="UTF-8" standalone="no"?>
<!-- Created with Inkscape (http://www.inkscape.org/) -->

<svg
   width="142.58575mm"
   height="31.936447mm"
   viewBox="0 0 142.58575 31.936447"
   version="1.1"
   id="svg1"
   xml:space="preserve"
   xmlns="http://www.w3.org/2000/svg"
   xmlns:svg="http://www.w3.org/2000/svg"><defs
     id="defs1" /><g
     id="layer1"
     transform="translate(-34.324368,-132.53178)"><g
       id="g4"
       transform="translate(8.5087031,14.238519)"><g
         id="g3"><path
           style="fill:#ffffff"
           d="m 45.471613,150.04053 c -2.035292,-0.45237 -3.523763,-1.22883 -6.945293,-3.62299 -3.955281,-2.76765 -6.115194,-3.71407 -8.476279,-3.71407 -1.721637,0 -3.00734,0.59628 -3.819419,1.77134 l -0.36725,0.53141 -0.04352,-0.52684 c -0.05695,-0.68939 0.47391,-1.84809 1.161907,-2.53609 0.52989,-0.52989 2.020921,-1.33291 2.475297,-1.33311 0.226464,-1.1e-4 0.244231,-0.26961 0.244231,-3.70479 v -3.70468 l 0.488461,0.0916 0.488462,0.0916 v -4.13256 -4.13257 h -1.783233 c -1.906754,0 -2.40358,0.14587 -2.40358,0.70571 0,0.14917 -0.0628,0.27121 -0.139561,0.27121 -0.08725,0 -0.13956,-0.84011 -0.13956,-2.2412 0,-1.4586 0.04873,-2.21109 0.13956,-2.15495 0.07676,0.0474 0.139561,0.16701 0.139561,0.26572 0,0.0987 0.129162,0.29637 0.287027,0.43923 0.224966,0.2036 0.570952,0.27218 1.600126,0.31719 0.722204,0.0316 1.535075,0.0158 1.806379,-0.0351 l 0.493281,-0.0925 v -0.97977 c 0,-1.19474 -0.132923,-1.46569 -0.882571,-1.79904 l -0.582814,-0.25915 3.14011,0.002 c 2.723564,10e-4 3.084415,0.026 2.720258,0.18613 -0.800988,0.35217 -0.975752,0.6863 -0.975752,1.86552 v 1.06722 l 1.97931,-0.005 c 1.733934,-0.004 2.015082,-0.0371 2.267857,-0.26586 0.158701,-0.14362 0.288547,-0.3419 0.288547,-0.44061 0,-0.0987 0.0628,-0.21828 0.13956,-0.26572 0.09083,-0.0561 0.139561,0.69635 0.139561,2.15495 0,1.40109 -0.05231,2.2412 -0.139561,2.2412 -0.07676,0 -0.13956,-0.12204 -0.13956,-0.27121 0,-0.57473 -0.484965,-0.70571 -2.612921,-0.70571 H 34.02766 v 4.11704 4.11702 h -0.560484 -0.560485 l 0.03713,3.77574 0.03713,3.77573 1.017368,0.34254 c 1.719657,0.57898 3.290949,1.43385 6.658456,3.62256 3.228028,2.09805 5.389574,2.98753 7.543221,3.10406 1.576516,0.0853 2.454825,-0.0976 3.957682,-0.82432 0.819432,-0.39623 1.440543,-0.82802 2.058859,-1.43132 0.940897,-0.91805 0.992023,-0.84873 0.350005,0.47457 -0.542901,1.11901 -1.975723,2.49814 -3.243695,3.12215 -1.753172,0.86279 -3.987955,1.14004 -5.851237,0.7259 z m 26.446709,-5.66348 c -4.23084,-0.64202 -7.313241,-3.12995 -8.869395,-7.15888 -0.231373,-0.59903 -0.515327,-1.57246 -0.63101,-2.16319 -0.115682,-0.59072 -0.240391,-1.21534 -0.27713,-1.38805 -0.06008,-0.28242 -0.01326,-0.31401 0.465362,-0.31401 h 0.53216 l 0.01042,-1.63982 c 0.04308,-6.78044 3.701623,-12.02326 9.188273,-13.16717 2.38168,-0.49655 4.19756,-0.27641 6.55934,0.7952 0.76758,0.34827 1.46531,0.66364 1.55051,0.70082 0.0852,0.0372 0.34548,-0.0927 0.57839,-0.28874 0.23291,-0.19598 0.46151,-0.35633 0.508,-0.35633 0.0465,0 0.0845,0.72222 0.0845,1.60494 0,1.89598 -0.10541,1.99244 -0.90636,0.8295 -1.88112,-2.73131 -5.61034,-3.88795 -8.37068,-2.59623 -2.11474,0.9896 -3.79627,3.35766 -4.72304,6.65135 -0.55486,1.97194 -0.67083,2.77108 -0.75437,5.19864 l -0.0781,2.26784 h -0.46891 c -0.57309,0 -0.58324,0.10323 -0.20189,2.05357 0.76636,3.91933 2.49582,6.5843 5.13053,7.90578 0.97699,0.49003 1.84337,0.6663 3.25519,0.6623 2.15286,-0.006 3.7174,-0.65075 5.17693,-2.13311 0.83646,-0.84955 0.96373,-0.93255 0.96373,-0.62849 0,0.31332 -0.96831,1.33482 -1.79474,1.89333 -1.75171,1.18383 -4.35445,1.66124 -6.92779,1.27075 z m 7.81629,-3.99334 c -3.38729,-0.61125 -6.10916,-3.28988 -6.68338,-6.57722 -0.0763,-0.43685 -0.0621,-0.45357 0.38598,-0.45357 h 0.4652 l 0.0736,-1.50026 c 0.24184,-4.92805 3.46136,-8.20935 8.344731,-8.50486 3.435804,-0.20791 6.512494,1.29343 8.139564,3.97187 0.89434,1.47225 1.41423,3.48743 1.32247,5.12612 l -0.0469,0.83735 -0.55824,0.0698 -0.55825,0.0698 -0.22124,0.91277 c -1.07335,4.42828 -5.55484,6.97013 -10.663565,6.04824 z m 3.806505,-0.55217 c 1.64938,-0.82191 2.79434,-2.74515 3.37918,-5.67614 l 0.16012,-0.80248 h 0.52908 0.52907 l 0.093,-0.9073 c 0.10212,-0.99672 -0.0879,-2.8823 -0.42198,-4.18664 -0.50752,-1.9817 -1.94627,-3.83304 -3.35069,-4.31158 -0.84277,-0.28716 -2.327314,-0.28716 -3.170085,0 -0.9786,0.33345 -2.08106,1.41295 -2.67038,2.61478 -0.77079,1.57194 -1.06962,2.94297 -1.09229,5.01136 l -0.0195,1.77938 h -0.44827 c -0.24654,0 -0.47716,0.0471 -0.51248,0.10467 -0.13065,0.21294 0.60857,2.73241 1.10377,3.76197 0.57956,1.20496 1.48385,2.19441 2.43298,2.66213 0.93194,0.45924 2.481401,0.43677 3.458525,-0.0502 z m -47.559613,-0.0588 c 0,-0.0768 0.102491,-0.13956 0.227757,-0.13956 0.125267,0 0.432313,-0.12642 0.682324,-0.28093 0.532678,-0.32922 0.828282,-0.92062 1.882522,-3.76632 0.41233,-1.11299 0.80762,-2.10144 0.878422,-2.19654 0.196551,-0.26401 0.397861,-0.0585 0.237044,0.24199 -0.285032,0.53259 -0.19538,0.55895 1.901134,0.55895 h 2.041071 l -0.08374,-0.41869 c -0.07803,-0.39014 -0.05544,-0.41868 0.331456,-0.41868 0.237847,0 0.416207,-0.0745 0.417568,-0.17445 0.0044,-0.32669 -1.586167,-4.29874 -1.677974,-4.1902 -0.05027,0.0594 -0.456345,1.0658 -0.902389,2.23637 -0.447731,1.17499 -0.889025,2.12828 -0.985208,2.12828 -0.1606,0 0.107467,-0.74918 2.771474,-7.7456 0.349617,-0.91819 0.661072,-1.53517 0.774969,-1.53517 0.117391,0 0.505054,0.82967 1.010746,2.16319 0.451175,1.18975 1.189817,3.13663 1.641427,4.32638 1.134297,2.98826 1.091433,2.7912 0.607134,2.7912 -0.222654,0 -0.439751,0.0349 -0.482437,0.0776 -0.04269,0.0427 0.128213,0.59221 0.379777,1.22116 0.251563,0.62895 0.694334,1.76518 0.983935,2.52496 0.57891,1.51879 1.112319,2.24935 1.743558,2.388 1.079417,0.23708 0.1826,0.34761 -2.820318,0.34761 -1.778233,0 -3.196251,-0.0369 -3.151152,-0.082 0.0451,-0.0451 0.291074,-0.18641 0.546612,-0.31402 0.703816,-0.35146 0.677648,-0.79608 -0.18184,-3.08967 l -0.733421,-1.95717 -2.240832,0.003 -2.240832,0.003 -0.734091,1.98582 c -0.40375,1.0922 -0.733462,2.15496 -0.732693,2.3617 0.0015,0.40187 0.439969,0.81038 0.869815,0.81038 0.136437,0 0.248068,0.0628 0.248068,0.13956 0,0.085 -0.628022,0.13956 -1.604945,0.13956 -0.976923,0 -1.604945,-0.0546 -1.604945,-0.13956 z m 56.382423,0.0687 c 0,-0.039 0.25304,-0.17215 0.56231,-0.2959 0.30927,-0.12375 0.62329,-0.33892 0.6978,-0.47816 0.0745,-0.13924 0.13549,-1.48193 0.13549,-2.98376 0,-2.33417 0.0304,-2.73061 0.20934,-2.73061 0.17896,0 0.20935,0.39662 0.20935,2.73217 v 2.73216 l 0.40794,0.40795 c 0.22437,0.22437 0.53838,0.40794 0.6978,0.40794 0.15942,0 0.28986,0.0628 0.28986,0.13956 0,0.085 -0.62802,0.13956 -1.60495,0.13956 -0.88272,0 -1.60494,-0.0319 -1.60494,-0.0709 z m 11.422863,-0.31288 c -0.35012,-0.38127 -3.75957,-4.65949 -4.496813,-5.64266 l -0.38529,-0.51382 0.4277,-0.0444 c 0.42769,-0.0444 0.42767,-0.0445 -1.77011,-2.79565 l -2.1978,-2.75124 -0.0698,2.78651 c -0.10761,4.29693 -0.3363,3.53965 -0.41868,-1.38639 -0.0637,-3.80965 -0.0923,-4.19752 -0.32849,-4.4583 -0.14228,-0.15709 -0.44059,-0.32558 -0.66291,-0.3744 -0.88093,-0.19349 -0.32335,-0.34573 1.26625,-0.34573 h 1.67046 l 3.715843,4.6404 c 2.04371,2.55221 3.80409,4.66068 3.91196,4.6855 0.16159,0.0372 0.19612,0.6208 0.19612,3.31456 0,3.06393 -0.0159,3.26943 -0.25301,3.26943 -0.13916,0 -0.41161,-0.1727 -0.60545,-0.38379 z m 0.55329,-5.6522 c -0.0381,-0.39486 -0.0889,-0.44728 -0.39263,-0.40503 -0.49365,0.0687 -0.5072,0.11838 -0.13905,0.51026 0.43908,0.46737 0.58412,0.43866 0.53168,-0.10523 z m 4.12602,5.58231 c 0.35857,-0.47011 0.36596,-0.52354 0.36596,-2.64523 0,-1.19098 0.0399,-2.4568 0.0888,-2.81293 0.0856,-0.62439 0.10551,-0.6475 0.55824,-0.6475 h 0.46949 v -4.17609 -4.17612 l -0.3489,-0.41464 c -0.19189,-0.22806 -0.3489,-0.45268 -0.3489,-0.49917 0,-0.13897 6.56197,-0.0939 7.44764,0.0511 3.21369,0.5263 5.65887,2.35244 6.72948,5.02582 0.44392,1.1085 0.72566,3.11004 0.5329,3.78587 -0.12281,0.43057 -0.18768,0.47682 -0.72356,0.51589 -0.47783,0.0348 -0.58866,0.0946 -0.58866,0.3175 0,0.51932 -0.52654,1.77142 -1.10015,2.61608 -1.00694,1.48279 -2.66737,2.60852 -4.6916,3.18079 -0.66873,0.18906 -1.6348,0.24899 -4.79701,0.29756 l -3.95965,0.0608 z m 6.15772,0.028 c 2.25493,-0.32559 3.85548,-2.12703 4.48867,-5.05204 l 0.23414,-1.0816 h 0.53447 0.53448 l -9.8e-4,-1.3607 c -0.002,-2.10304 -0.50253,-3.93166 -1.48099,-5.40534 -1.03615,-1.56056 -2.24099,-2.16583 -4.31129,-2.16583 H 113.298 v 4.53573 4.5357 h -0.55825 -0.55824 v 2.97729 c 0,1.63751 0.0419,3.01916 0.093,3.07033 0.13431,0.13431 1.21958,0.10957 2.34927,-0.0535 z m 9.97857,0.28614 c 0,-0.0768 0.13044,-0.13956 0.28986,-0.13956 0.15942,0 0.47343,-0.18357 0.6978,-0.40794 l 0.40795,-0.40795 v -2.74682 -2.74682 l 0.55824,0.0532 0.55824,0.0532 v -4.02297 c 0,-4.50538 -0.0332,-4.68905 -0.90581,-5.00457 -0.26939,-0.0974 -0.4898,-0.2273 -0.4898,-0.28864 0,-0.0613 2.6691,-0.11153 5.93132,-0.11153 h 5.93132 v 1.46539 c 0,1.47785 -0.17515,1.93558 -0.34835,0.91039 -0.12216,-0.72305 -0.57758,-1.3761 -1.18464,-1.69868 -0.42214,-0.22433 -0.8225,-0.25842 -3.03543,-0.25842 h -2.54916 v 4.34008 4.34006 l 1.84918,-0.0486 c 2.12706,-0.0559 2.64485,-0.24643 3.08182,-1.13406 0.14065,-0.2857 0.31335,-0.51946 0.38379,-0.51946 0.0704,0 0.12807,0.47101 0.12807,1.0467 v 1.04669 h -0.55825 -0.55824 v 0.69781 c 0,0.38379 -0.0471,0.69763 -0.10467,0.69742 -0.0576,-2.1e-4 -0.23027,-0.23571 -0.38379,-0.52335 -0.47381,-0.88777 -0.96611,-1.04405 -3.03208,-0.96256 -0.97682,0.0385 -1.82465,0.1 -1.88406,0.13658 -0.0594,0.0366 -0.0766,1.40718 -0.0382,3.04575 l 0.0698,2.97923 2.00571,0.0388 c 2.44075,0.0473 3.41149,-0.10735 3.97043,-0.63233 0.46346,-0.43529 0.79254,-1.11418 0.79254,-1.63498 0,-0.19436 0.0628,-0.35339 0.13956,-0.35339 0.0842,0 0.13956,0.58151 0.13956,1.46539 v 1.46538 h -5.93132 c -3.86117,0 -5.93132,-0.0487 -5.93132,-0.13956 z m 13.95605,0 c 0,-0.0768 0.13043,-0.13956 0.28985,-0.13956 0.15942,0 0.47343,-0.18357 0.6978,-0.40794 l 0.40795,-0.40795 v -2.74379 c 0,-2.13295 0.0388,-2.73088 0.17445,-2.68576 0.1297,0.0431 0.18331,0.73525 0.209,2.69817 0.0215,1.64177 0.0949,2.75612 0.19414,2.94687 0.0878,0.1687 0.40194,0.4037 0.69814,0.52222 0.29621,0.11851 0.53856,0.24739 0.53856,0.28639 0,0.039 -0.72223,0.0709 -1.60495,0.0709 -0.97692,0 -1.60494,-0.0546 -1.60494,-0.13956 z m 9.22523,-2.91578 c -1.33543,-1.67988 -2.47834,-3.14418 -2.53979,-3.254 -0.0892,-0.15936 -0.0234,-0.18669 0.32592,-0.13542 l 0.43767,0.0642 -0.2704,-0.40849 c -0.38358,-0.5795 -4.08706,-5.18368 -4.2512,-5.28513 -0.0869,-0.0537 -0.13623,0.95463 -0.13623,2.78505 0,1.81977 -0.051,2.86921 -0.13956,2.86921 -0.0898,0 -0.13956,-1.44442 -0.13956,-4.05417 0,-4.53961 -0.0324,-4.71996 -0.9058,-5.03577 -0.26939,-0.0974 -0.4898,-0.2273 -0.4898,-0.28864 0,-0.0613 0.7412,-0.11153 1.64712,-0.11153 h 1.64712 l 3.74421,4.67529 c 2.05932,2.5714 3.83021,4.67526 3.9353,4.67526 0.15632,0 0.19108,0.59673 0.19108,3.27967 v 3.27967 l -0.31401,-4.5e-4 c -0.24189,-3.5e-4 -0.87162,-0.70189 -2.74207,-3.05478 z m 2.6374,-2.87608 c 0,-0.42799 -0.0432,-0.48847 -0.3489,-0.48847 -0.19189,0 -0.3489,0.034 -0.3489,0.0754 0,0.0883 0.59017,0.9015 0.65427,0.9015 0.0239,0 0.0435,-0.21981 0.0435,-0.48846 z m 2.09341,5.81979 c 0,-0.0613 0.21967,-0.19096 0.48817,-0.28805 0.70348,-0.25438 1.06264,-0.8255 1.86236,-2.96148 0.94973,-2.53661 1.24127,-3.19829 1.40919,-3.19829 0.0938,0 0.0954,0.12006 0.005,0.35799 -0.0749,0.19689 -0.13611,0.3853 -0.13611,0.41868 0,0.0334 0.94702,0.0607 2.1045,0.0607 h 2.10449 l -0.0951,-0.4329 c -0.0933,-0.42461 -0.0868,-0.43107 0.33781,-0.33781 0.25994,0.0571 0.4329,0.0391 0.4329,-0.0451 0,-0.0771 -0.30678,-0.94561 -0.68174,-1.93004 -0.96107,-2.52325 -0.9942,-2.60275 -1.05805,-2.5389 -0.0315,0.0315 -0.43235,1.0499 -0.89079,2.26313 -0.86014,2.27629 -0.93512,2.43321 -1.08908,2.27925 -0.0851,-0.0851 0.1874,-0.84167 2.52286,-7.00324 0.50522,-1.33291 0.98405,-2.39018 1.09273,-2.41282 0.13263,-0.0276 0.41825,0.56479 0.90836,1.88407 0.3932,1.05839 1.18952,3.17216 1.76959,4.69725 0.58008,1.52508 1.05469,2.79682 1.05469,2.82609 0,0.0293 -0.21981,0.0532 -0.48846,0.0532 -0.26866,0 -0.48847,0.02 -0.48847,0.0445 0,0.18151 1.96596,5.04714 2.15729,5.33913 0.13367,0.20401 0.48735,0.4735 0.78596,0.59886 0.29861,0.12536 0.54357,0.27503 0.54435,0.3326 7.8e-4,0.0576 -1.41163,0.10467 -3.13869,0.10467 -1.72706,0 -3.14011,-0.0502 -3.14011,-0.11152 0,-0.0613 0.21961,-0.19094 0.48803,-0.288 0.6253,-0.22611 0.74199,-0.65475 0.4153,-1.52549 -0.13555,-0.36127 -0.4931,-1.30058 -0.79457,-2.08735 l -0.54812,-1.43049 h -2.21249 -2.21248 l -0.43712,1.15137 c -0.24041,0.63326 -0.59841,1.57045 -0.79555,2.08265 -0.4443,1.15435 -0.37525,1.56309 0.30567,1.80931 0.26841,0.0971 0.48803,0.22666 0.48803,0.288 0,0.0613 -0.69083,0.11152 -1.53517,0.11152 -0.84434,0 -1.53516,-0.0502 -1.53516,-0.11152 z m -47.08218,-6.40509 c -0.0491,-0.0491 -0.0893,-1.92297 -0.0893,-4.16419 0,-3.87187 -0.014,-4.09275 -0.28082,-4.43197 -0.15445,-0.19635 -0.46901,-0.39834 -0.69902,-0.44886 -0.83107,-0.18253 -0.22805,-0.34826 1.2672,-0.34826 1.47237,0 1.97632,0.15824 1.10995,0.34853 -0.22934,0.0504 -0.54335,0.25224 -0.69781,0.44859 -0.26688,0.33928 -0.28082,0.56007 -0.28082,4.44699 0,3.71046 -0.0565,4.4221 -0.32943,4.14917 z m 46.10526,-3.94132 c 0,-2.36552 -0.058,-4.19086 -0.14014,-4.40678 -0.0886,-0.23298 -0.34481,-0.45456 -0.69639,-0.60222 -0.30593,-0.12849 -0.55688,-0.28072 -0.55766,-0.33829 -0.002,-0.15986 3.03922,-0.12605 3.13869,0.0349 0.0474,0.0768 -0.0421,0.13956 -0.1989,0.13956 -0.15684,0 -0.49025,0.18317 -0.74093,0.40705 l -0.45577,0.40704 -0.0425,4.19846 c -0.0255,2.51367 -0.0955,4.19844 -0.17445,4.19844 -0.0798,0 -0.13191,-1.59514 -0.13191,-4.03815 z"
           id="path1" /></g></g><text
       xml:space="preserve"
       style="font-size:3.175px;fill:#ffffff;stroke-width:0.264583"
       x="163.05051"
       y="156.07526"
       id="text1"><tspan
         id="tspan1"
         style="font-style:italic;font-variant:normal;font-weight:normal;font-stretch:normal;font-size:3.175px;font-family:Sans;-inkscape-font-specification:'Sans, Italic';font-variant-ligatures:normal;font-variant-caps:normal;font-variant-numeric:normal;font-variant-east-asian:normal;text-align:center;text-anchor:middle;stroke-width:0.264583"
         x="163.05051"
         y="156.07526" /><tspan
         style="font-style:italic;font-variant:normal;font-weight:normal;font-stretch:normal;font-size:3.175px;font-family:Sans;-inkscape-font-specification:'Sans, Italic';font-variant-ligatures:normal;font-variant-caps:normal;font-variant-numeric:normal;font-variant-east-asian:normal;text-align:center;text-anchor:middle;stroke-width:0.264583"
         x="163.05051"
         y="160.04401"
         id="tspan3">-  Octubre 2024 -</tspan><tspan
         style="text-align:center;text-anchor:middle;stroke-width:0.264583"
         x="163.05051"
         y="164.01276"
         id="tspan2" /></text></g></svg>
